<?xml version="1.0" encoding="UTF-8"?><svg id="Layer_2" xmlns="http://www.w3.org/2000/svg" viewBox="0 0 39.74 50"><defs><style>.cls-1{fill:#e40046;stroke-width:0px;}</style></defs><g id="Layer_1-2"><path class="cls-1" d="M37.75,0H12.38L0,12.67v35.35c0,1.09.89,1.99,1.99,1.99h35.76c1.09,0,1.99-.89,1.99-1.99V1.99c0-1.09-.89-1.99-1.99-1.99ZM35.84,46.36H3.89V14.65l10.47-.06V3.64h21.48v42.72Z"/><path class="cls-1" d="M24.13,39.39h-3.11v-6.09l.08-3.08h-.13l-3.06,7.65h-2.55l-3.08-7.65h-.13l.08,3.08v6.09h-3.11v-16.77h3.31l4.21,11.29h.08l4.15-11.29h3.26v16.77Z"/><path class="cls-1" d="M27.01,22.62h3.31v16.77h-3.31v-16.77Z"/></g></svg>