<?xml version="1.0" encoding="UTF-8"?><svg id="Layer_2" xmlns="http://www.w3.org/2000/svg" viewBox="0 0 36.82 50"><defs><style>.cls-1{fill:#e40046;stroke-width:0px;}</style></defs><g id="Layer_1-2"><polygon class="cls-1" points="0 44.9 10.59 44.9 26.23 44.9 36.82 44.9 36.82 41.43 26.23 41.43 10.59 41.43 0 41.43 0 44.9"/><rect class="cls-1" y="46.53" width="22.07" height="3.47"/><path class="cls-1" d="M6.63,32.47c3.15,3.09,7.47,5,12.23,5,9.65,0,17.47-7.82,17.47-17.47h-17.47l-12.23,12.47Z"/><path class="cls-1" d="M21.94,1.92c3.21.53,6.19,2.04,8.53,4.36,2.33,2.32,3.87,5.27,4.42,8.47h-12.95V1.92M20.21,0v16.47h16.61C36.33,7.55,29.15.42,20.21,0h0Z"/><path class="cls-1" d="M16.41,16.97V.6C7.26,1.14,0,8.74,0,18.03c0,4.32,1.57,8.28,4.17,11.33l12.24-12.39Z"/></g></svg>