<?xml version="1.0" encoding="UTF-8"?>
<svg id="Layer_2" xmlns="http://www.w3.org/2000/svg" version="1.1" viewBox="0 0 50 50">
  <!-- Generator: Adobe Illustrator 29.2.1, SVG Export Plug-In . SVG Version: 2.1.0 Build 116)  -->
  <defs>
    <style>
      .st0 {
        fill: #e40046;
        fill-rule: evenodd;
      }
    </style>
  </defs>
  <g id="Layer_1-2">
    <path class="st0" d="M25,0C11.2,0,0,11.2,0,25s11.2,25,25,25,25-11.2,25-25S38.8,0,25,0ZM46,23.7h-7.9c-.5-7.5-5.2-14.1-9.5-19.4,9.5,1.6,16.8,9.6,17.4,19.4h0ZM23.7,23.7h-9.1c.5-6.8,4.9-12.9,9.1-18.1v18.1h0ZM26.3,5.6c4.2,5.2,8.6,11.2,9.1,18.1h-9.1V5.6ZM23.7,26.3v18.1c-4.2-5.2-8.6-11.3-9.1-18.1,0,0,9.1,0,9.1,0ZM26.3,26.3h9.1c-.5,6.8-4.9,12.9-9.1,18.1v-18.1h0ZM21.4,4.3c-4.3,5.3-9,11.9-9.5,19.4h-7.9c.6-9.8,7.9-17.8,17.4-19.4ZM4,26.3h7.9c.5,7.5,5.2,14.1,9.5,19.4-9.5-1.6-16.8-9.6-17.4-19.4h0ZM28.6,45.7c4.3-5.3,9-11.9,9.5-19.4h7.9c-.6,9.8-7.9,17.8-17.4,19.4h0Z"/>
  </g>
</svg>